<?xml version="1.0" standalone="no"?>
<!DOCTYPE svg PUBLIC "-//W3C//DTD SVG 20010904//EN"
 "http://www.w3.org/TR/2001/REC-SVG-20010904/DTD/svg10.dtd">
<svg version="1.0" xmlns="http://www.w3.org/2000/svg"
 width="1398.000000pt" height="1398.000000pt" viewBox="0 0 1398.000000 1398.000000"
 preserveAspectRatio="xMidYMid meet">
<metadata>
Created by potrace 1.16, written by Peter Selinger 2001-2019
</metadata>
<g transform="translate(0.000000,1398.000000) scale(0.100000,-0.100000)"
fill="#000000" stroke="none">
<path d="M8465 13946 c-206 -87 -554 -435 -740 -741 -514 -845 -550 -1909 -95
-2853 189 -391 413 -705 730 -1022 437 -438 933 -744 1515 -934 479 -157 1162
-189 1700 -80 724 147 1329 563 1767 1217 83 124 267 439 301 517 30 67 28
170 -5 242 -53 115 -150 180 -280 186 -66 4 -84 1 -135 -23 -72 -32 -105 -64
-196 -185 -313 -416 -756 -631 -1351 -657 -340 -14 -817 60 -1156 180 -453
160 -798 372 -1106 681 -225 225 -391 461 -530 751 -304 638 -375 1353 -189
1910 36 108 63 167 153 338 50 93 52 101 52 175 0 64 -5 87 -28 137 -53 110
-151 175 -277 182 -58 3 -80 -1 -130 -21z"/>
<path d="M5663 13330 c-22 -5 -58 -18 -80 -28 -158 -82 -747 -695 -1038 -1081
-185 -246 -402 -683 -514 -1034 -284 -892 -278 -1866 16 -2817 135 -439 374
-936 646 -1345 249 -374 354 -510 571 -733 318 -328 460 -459 709 -655 577
-454 1134 -752 1848 -990 237 -80 300 -95 524 -126 929 -132 1745 -99 2490
100 1076 288 1989 945 2622 1889 169 252 351 598 459 870 70 179 80 258 44
354 -57 150 -229 237 -383 192 -76 -22 -131 -66 -205 -166 -282 -381 -542
-633 -894 -871 -370 -250 -818 -440 -1268 -539 -326 -71 -549 -94 -910 -94
-537 -1 -995 77 -1527 258 -765 262 -1436 681 -2024 1266 -394 392 -693 797
-948 1281 -148 282 -319 731 -370 971 -125 585 -71 1236 159 1912 103 301 169
448 418 929 31 58 35 77 36 140 1 126 -65 232 -177 286 -69 33 -141 44 -204
31z"/>
<path d="M2125 12363 c-69 -28 -124 -75 -320 -275 -343 -348 -585 -651 -885
-1104 -319 -482 -511 -900 -670 -1462 -365 -1282 -309 -2879 152 -4302 279
-861 774 -1729 1418 -2485 261 -306 629 -671 945 -935 818 -685 1707 -1182
2690 -1503 373 -122 458 -142 834 -197 474 -68 744 -90 1211 -97 383 -6 628 3
925 33 1809 182 3327 995 4430 2372 284 354 516 717 707 1108 105 214 118 268
94 365 -20 75 -43 115 -97 164 -64 58 -121 80 -209 80 -137 0 -185 -31 -326
-207 -184 -229 -475 -511 -720 -696 -99 -74 -338 -231 -453 -296 -151 -86
-422 -215 -601 -285 -464 -183 -936 -293 -1535 -358 -236 -26 -1054 -25 -1310
0 -741 75 -1284 191 -1826 390 -1246 459 -2338 1232 -3190 2257 -221 266 -440
581 -580 835 -799 1448 -1106 3779 -695 5275 78 286 202 572 332 765 37 55 76
119 86 143 24 52 25 160 4 221 -32 88 -109 165 -196 196 -55 19 -164 18 -215
-2z"/>
</g>
</svg>
