<?xml version="1.0" standalone="no"?>
<!DOCTYPE svg PUBLIC "-//W3C//DTD SVG 20010904//EN"
 "http://www.w3.org/TR/2001/REC-SVG-20010904/DTD/svg10.dtd">
<svg version="1.0" xmlns="http://www.w3.org/2000/svg"
 width="4096.000000pt" height="4096.000000pt" viewBox="0 0 4096.000000 4096.000000"
 preserveAspectRatio="xMidYMid meet">
<metadata>
Created by potrace 1.16, written by Peter Selinger 2001-2019
</metadata>
<g transform="translate(0.000000,4096.000000) scale(0.100000,-0.100000)"
fill="#000000" stroke="none">
<path d="M4096 38223 c-3869 -3 -4098 -4 -4092 -20 12 -31 20470 -35463 20476
-35463 7 0 20473 35446 20478 35465 2 10 -1713 14 -7869 20 -6944 6 -7874 6
-7883 -8 -6 -8 -1071 -1846 -2366 -4086 -1295 -2239 -2357 -4071 -2361 -4071
-4 0 -1068 1838 -2365 4085 l-2359 4085 -3780 -3 c-2079 -1 -5624 -3 -7879 -4z"/>
</g>
</svg>
